{
    "accessors" : [
        {
            "bufferView" : 0,
            "componentType" : 5123,
            "count" : 7092,
            "max" : [
                1375
            ],
            "min" : [
                0
            ],
            "type" : "SCALAR"
        },
        {
            "bufferView" : 1,
            "componentType" : 5126,
            "count" : 1376,
            "max" : [
                1.0709925889968872,
                0.6762421727180481,
                1.0709925889968872
            ],
            "min" : [
                -1.0709925889968872,
                -0.11458128690719604,
                -1.0709924697875977
            ],
            "type" : "VEC3"
        },
        {
            "bufferView" : 2,
            "componentType" : 5126,
            "count" : 1376,
            "max" : [
                1.0,
                0.9962767362594604,
                1.0
            ],
            "min" : [
                -1.0,
                -1.0,
                -0.999969482421875
            ],
            "type" : "VEC3"
        },
        {
            "bufferView" : 3,
            "componentType" : 5126,
            "count" : 1376,
            "max" : [
                0.9998540878295898,
                0.9998541232780553
            ],
            "min" : [
                0.00014587672194465995,
                0.09459483623504639
            ],
            "type" : "VEC2"
        }
    ],
    "asset" : {
        "generator" : "Khronos Blender glTF 2.0 exporter",
        "version" : "2.0"
    },
    "bufferViews" : [
        {
            "buffer" : 0,
            "byteLength" : 14184,
            "byteOffset" : 0,
            "target" : 34963
        },
        {
            "buffer" : 0,
            "byteLength" : 16512,
            "byteOffset" : 14184,
            "target" : 34962
        },
        {
            "buffer" : 0,
            "byteLength" : 16512,
            "byteOffset" : 30696,
            "target" : 34962
        },
        {
            "buffer" : 0,
            "byteLength" : 11008,
            "byteOffset" : 47208,
            "target" : 34962
        }
    ],
    "buffers" : [
        {
            "byteLength" : 58216,
            "uri" : "untitled2.bin"
        }
    ],
    "images" : [
        {
            "name" : "ramenblend_dist3_texture",
            "uri" : "ramenblend_dist3_texture.png"
        }
    ],
    "materials" : [
        {
            "name" : "Material.001",
            "pbrMetallicRoughness" : {
                "baseColorFactor" : [
                    0.800000011920929,
                    0.800000011920929,
                    0.800000011920929,
                    1.0
                ],
                "baseColorTexture" : {
                    "index" : 0
                },
                "metallicFactor" : 0.0
            }
        }
    ],
    "meshes" : [
        {
            "name" : "Cylinder",
            "primitives" : [
                {
                    "attributes" : {
                        "NORMAL" : 2,
                        "POSITION" : 1,
                        "TEXCOORD_0" : 3
                    },
                    "indices" : 0,
                    "material" : 0
                }
            ]
        }
    ],
    "nodes" : [
        {
            "name" : "Camera",
            "rotation" : [
                0.483536034822464,
                0.33687159419059753,
                -0.20870360732078552,
                0.7804827094078064
            ],
            "translation" : [
                7.481131553649902,
                5.34366512298584,
                6.5076398849487305
            ]
        },
        {
            "name" : "Camera.001",
            "rotation" : [
                0.48353609442710876,
                0.3368716537952423,
                -0.20870374143123627,
                0.7804827690124512
            ],
            "scale" : [
                0.9999999403953552,
                0.9999998807907104,
                1.0
            ],
            "translation" : [
                7.481131553649902,
                5.34366512298584,
                8.982993125915527
            ]
        },
        {
            "mesh" : 0,
            "name" : "Cylinder",
            "rotation" : [
                -8.146033536604591e-08,
                0.0,
                -0.0,
                1.0
            ],
            "translation" : [
                -0.2592475414276123,
                -0.18885192275047302,
                -0.2966090440750122
            ]
        },
        {
            "name" : "Lamp",
            "rotation" : [
                0.16907575726509094,
                0.7558802962303162,
                -0.27217137813568115,
                0.570947527885437
            ],
            "scale" : [
                1.0,
                1.0,
                0.9999999403953552
            ],
            "translation" : [
                4.076245307922363,
                5.903861999511719,
                -1.0054539442062378
            ]
        },
        {
            "name" : "Lamp.001",
            "rotation" : [
                0.16907577216625214,
                0.7558804154396057,
                -0.27217134833335876,
                0.5709474086761475
            ],
            "scale" : [
                1.0,
                1.0,
                0.9999998807907104
            ],
            "translation" : [
                0.9381804466247559,
                3.9651644229888916,
                2.8113455772399902
            ]
        }
    ],
    "samplers" : [
        {}
    ],
    "scene" : 0,
    "scenes" : [
        {
            "name" : "Scene",
            "nodes" : [
                1,
                4,
                2,
                3,
                0
            ]
        }
    ],
    "textures" : [
        {
            "sampler" : 0,
            "source" : 0
        }
    ]
}
